<svg width="240" height="200" viewBox="0 0 240 200" fill="none" xmlns="http://www.w3.org/2000/svg">
<path d="M20.5337 165C20.5337 167.207 18.74 169 16.5227 169C14.3054 169 12.5117 167.207 12.5117 165C12.5117 162.793 14.3054 161 16.5227 161C18.74 161 20.5337 162.793 20.5337 165Z" stroke="#FF9800" stroke-width="2"/>
<path opacity="0.65385" d="M145.556 139C169.358 129.25 175.622 129.25 192.409 99.4998C209.196 69.7498 185.408 24.7498 145.556 24.7498C105.704 24.7498 -2.76899 58.4998 46.0882 99.4998C94.9453 140.5 121.754 148.75 145.556 139Z" fill="#E9E9E9"/>
<path opacity="0.391071" d="M118.65 184.25C170.403 184.25 211.952 151.138 211.952 99.4998C211.952 47.8611 222.113 35.2498 170.361 35.2498C118.609 35.2498 24.541 47.8611 24.541 99.4998C24.541 151.138 66.8983 184.25 118.65 184.25Z" fill="#E9E9E9"/>
<path opacity="0.202288" d="M147.007 188C208.821 188 245.305 131.19 230.22 80.9345C215.135 30.6794 159.416 64.9112 107.591 28.0088C55.7654 -8.89349 6.37305 19.2564 6.37305 80.9345C6.37305 142.613 85.1937 188 147.007 188Z" fill="#E9E9E9"/>
<path d="M229.994 64.4998C229.994 66.7068 228.2 68.4998 225.983 68.4998C223.765 68.4998 221.972 66.7068 221.972 64.4998C221.972 62.2927 223.765 60.4998 225.983 60.4998C228.2 60.4998 229.994 62.2927 229.994 64.4998Z" stroke="#FF9800" stroke-width="2"/>
<path d="M37.8184 150.25H196.67V157C196.67 157.966 195.887 158.75 194.92 158.75H39.5684C38.6019 158.75 37.8184 157.966 37.8184 157V150.25Z" fill="white" stroke="#C9C9C9" stroke-width="1.5"/>
<path opacity="0.298549" d="M57.1123 72.4998C57.1123 71.119 58.2316 69.9998 59.6123 69.9998H174.876C176.257 69.9998 177.376 71.119 177.376 72.4998V145H59.6123C58.2316 145 57.1123 143.88 57.1123 142.5V72.4998Z" fill="#D8D8D8"/>
<path d="M95.9463 150.25H137.541V151C137.541 153.071 135.862 154.75 133.791 154.75H99.6963C97.6252 154.75 95.9463 153.071 95.9463 151V150.25Z" stroke="#C9C9C9" stroke-width="1.5"/>
<path d="M47.8408 63.4998C47.8408 61.7048 49.2959 60.2498 51.0908 60.2498H183.399C185.193 60.2498 186.649 61.7048 186.649 63.4998V150.25H47.8408V63.4998Z" fill="white" stroke="#C9C9C9" stroke-width="1.5"/>
<path opacity="0.198326" d="M58.1143 72.4998C58.1143 71.3952 59.0097 70.4998 60.1143 70.4998H174.375C175.755 70.4998 176.875 71.619 176.875 72.9998V145.5H58.1143V72.4998Z" fill="#D8D8D8"/>
<path d="M58 96.2498V114.25" stroke="#C9C9C9" stroke-width="1.5" stroke-linecap="square"/>
<path d="M58 121V131" stroke="#C9C9C9" stroke-width="1.5" stroke-linecap="square"/>
<path d="M176.624 135V144.25" stroke="#C9C9C9" stroke-width="1.5" stroke-linecap="square"/>
<path d="M58.75 88.9998H57.25V71.4998C57.25 69.9834 58.4656 68.7498 59.9707 68.7498H174.529C176.034 68.7498 177.25 69.9834 177.25 71.4998V129H175.75V71.4998C175.75 70.8069 175.201 70.2498 174.529 70.2498H59.9707C59.299 70.2498 58.75 70.8069 58.75 71.4998V88.9998Z" fill="#C9C9C9"/>
<path d="M77.1562 39.4998H157.332V145H77.1562V39.4998Z" fill="white"/>
<path d="M142 40.9998V39.4998H153C155.623 39.4998 157.75 41.6264 157.75 44.2498V124.25H156.25V44.2498C156.25 42.4548 154.795 40.9998 153 40.9998H142Z" fill="#C9C9C9"/>
<path d="M92.75 40.9998H81.75C79.9551 40.9998 78.5 42.4548 78.5 44.2498V145.25H77V44.2498C77 41.6264 79.1266 39.4998 81.75 39.4998H92.75V40.9998Z" fill="#C9C9C9"/>
<path d="M157 136.25V144.25" stroke="#C9C9C9" stroke-width="1.5" stroke-linecap="square"/>
<path d="M121.503 40.2498H101.96" stroke="#C9C9C9" stroke-width="1.5" stroke-linecap="square"/>
<path d="M147.56 40.2498H128.018" stroke="#C9C9C9" stroke-width="1.5" stroke-linecap="square"/>
<path d="M91.9387 40.2498H82.9189" stroke="#C9C9C9" stroke-width="1.5" stroke-linecap="square"/>
<path opacity="0.603739" d="M97.1997 69.4998C102.735 69.4998 107.222 65.0226 107.222 59.4998C107.222 53.9769 102.735 49.4998 97.1997 49.4998C91.6647 49.4998 87.1777 53.9769 87.1777 59.4998C87.1777 65.0226 91.6647 69.4998 97.1997 69.4998Z" fill="#5395FF"/>
<rect opacity="0.597489" x="112.233" y="121" width="30.0659" height="15" rx="3" fill="#97BFFF"/>
<path opacity="0.602176" d="M117.244 50.4998C117.244 49.9475 117.692 49.4998 118.244 49.4998H146.31C146.862 49.4998 147.31 49.9475 147.31 50.4998C147.31 51.052 146.862 51.4998 146.31 51.4998H118.244C117.692 51.4998 117.244 51.052 117.244 50.4998Z" fill="#9F9F9F"/>
<rect opacity="0.602176" x="87.1777" y="79.4998" width="60.1319" height="2" rx="1" fill="#9F9F9F"/>
<path opacity="0.602176" d="M87.1777 90.4998C87.1777 89.9475 87.6254 89.4998 88.1777 89.4998H126.266C126.818 89.4998 127.266 89.9475 127.266 90.4998C127.266 91.052 126.818 91.4998 126.266 91.4998H88.1777C87.6255 91.4998 87.1777 91.052 87.1777 90.4998Z" fill="#9F9F9F"/>
<rect opacity="0.602176" x="87.1777" y="99.4998" width="50.1099" height="2" rx="1" fill="#9F9F9F"/>
<rect opacity="0.602176" x="87.1777" y="109.5" width="10.022" height="2" rx="1" fill="#9F9F9F"/>
<rect opacity="0.602176" x="107.222" y="109.5" width="10.022" height="2" rx="1" fill="#9F9F9F"/>
<rect opacity="0.602176" x="127.266" y="109.5" width="20.044" height="2" rx="1" fill="#9F9F9F"/>
<path opacity="0.602176" d="M87.1777 130.5C87.1777 129.947 87.6254 129.5 88.1777 129.5H106.222C106.774 129.5 107.222 129.947 107.222 130.5C107.222 131.052 106.774 131.5 106.222 131.5H88.1777C87.6255 131.5 87.1777 131.052 87.1777 130.5Z" fill="#9F9F9F"/>
<path opacity="0.602176" d="M117.244 130.5C117.244 129.947 117.692 129.5 118.244 129.5H146.31C146.862 129.5 147.31 129.947 147.31 130.5C147.31 131.052 146.862 131.5 146.31 131.5H118.244C117.692 131.5 117.244 131.052 117.244 130.5Z" fill="#9F9F9F"/>
<path opacity="0.602176" d="M87.1777 140.5C87.1777 139.947 87.6254 139.5 88.1777 139.5H126.266C126.818 139.5 127.266 139.947 127.266 140.5C127.266 141.052 126.818 141.5 126.266 141.5H88.1777C87.6255 141.5 87.1777 141.052 87.1777 140.5Z" fill="#9F9F9F"/>
<path opacity="0.602176" d="M137.288 140.5C137.288 139.947 137.736 139.5 138.288 139.5H146.31C146.862 139.5 147.31 139.947 147.31 140.5C147.31 141.052 146.862 141.5 146.31 141.5H138.288C137.736 141.5 137.288 141.052 137.288 140.5Z" fill="#9F9F9F"/>
<rect opacity="0.602176" x="117.244" y="59.4998" width="15.5341" height="2" rx="1" fill="#9F9F9F"/>
<path opacity="0.602176" d="M138.288 59.4998H146.31C146.862 59.4998 147.31 59.9475 147.31 60.4998C147.31 61.052 146.862 61.4998 146.31 61.4998H138.288C137.736 61.4998 137.288 61.052 137.288 60.4998C137.288 59.9475 137.736 59.4998 138.288 59.4998Z" fill="#9F9F9F"/>
<path fill-rule="evenodd" clip-rule="evenodd" d="M28.5626 20.5861C28.3088 20.3322 27.8972 20.3322 27.6434 20.5861C27.3896 20.8399 27.3896 21.2515 27.6434 21.5053L31.3305 25.1924L27.6434 28.8794C27.3896 29.1333 27.3896 29.5448 27.6434 29.7987C27.8972 30.0525 28.3088 30.0525 28.5626 29.7987L32.2497 26.1116L35.9368 29.7987C36.1906 30.0525 36.6022 30.0525 36.856 29.7987C37.1098 29.5448 37.1098 29.1333 36.856 28.8794L33.1689 25.1924L36.856 21.5053C37.1098 21.2515 37.1098 20.8399 36.856 20.5861C36.6022 20.3322 36.1906 20.3322 35.9368 20.5861L32.2497 24.2731L28.5626 20.5861Z" fill="#FF9800"/>
<path d="M31.3305 25.1924L31.5072 25.3692L31.684 25.1924L31.5072 25.0156L31.3305 25.1924ZM32.2497 26.1116L32.4265 25.9348L32.2497 25.7581L32.0729 25.9348L32.2497 26.1116ZM36.856 28.8794L37.0328 28.7027L36.856 28.8794ZM33.1689 25.1924L32.9922 25.0156L32.8154 25.1924L32.9922 25.3692L33.1689 25.1924ZM36.856 21.5053L37.0328 21.6821L36.856 21.5053ZM32.2497 24.2731L32.0729 24.4499L32.2497 24.6267L32.4265 24.4499L32.2497 24.2731ZM27.8202 20.7629C27.9764 20.6067 28.2297 20.6067 28.3859 20.7629L28.7394 20.4093C28.3879 20.0578 27.8181 20.0578 27.4666 20.4093L27.8202 20.7629ZM27.8202 21.3285C27.664 21.1723 27.664 20.9191 27.8202 20.7629L27.4666 20.4093C27.1152 20.7608 27.1152 21.3306 27.4666 21.6821L27.8202 21.3285ZM31.5072 25.0156L27.8202 21.3285L27.4666 21.6821L31.1537 25.3692L31.5072 25.0156ZM27.8202 29.0562L31.5072 25.3692L31.1537 25.0156L27.4666 28.7027L27.8202 29.0562ZM27.8202 29.6219C27.664 29.4657 27.664 29.2124 27.8202 29.0562L27.4666 28.7027C27.1152 29.0541 27.1152 29.624 27.4666 29.9755L27.8202 29.6219ZM28.3859 29.6219C28.2297 29.7781 27.9764 29.7781 27.8202 29.6219L27.4666 29.9755C27.8181 30.3269 28.3879 30.3269 28.7394 29.9755L28.3859 29.6219ZM32.0729 25.9348L28.3859 29.6219L28.7394 29.9755L32.4265 26.2884L32.0729 25.9348ZM36.1135 29.6219L32.4265 25.9348L32.0729 26.2884L35.76 29.9755L36.1135 29.6219ZM36.6792 29.6219C36.523 29.7781 36.2697 29.7781 36.1135 29.6219L35.76 29.9755C36.1115 30.3269 36.6813 30.3269 37.0328 29.9755L36.6792 29.6219ZM36.6792 29.0562C36.8354 29.2124 36.8354 29.4657 36.6792 29.6219L37.0328 29.9755C37.3842 29.624 37.3842 29.0541 37.0328 28.7027L36.6792 29.0562ZM32.9922 25.3692L36.6792 29.0562L37.0328 28.7027L33.3457 25.0156L32.9922 25.3692ZM36.6792 21.3285L32.9922 25.0156L33.3457 25.3692L37.0328 21.6821L36.6792 21.3285ZM36.6792 20.7629C36.8354 20.9191 36.8354 21.1723 36.6792 21.3285L37.0328 21.6821C37.3842 21.3306 37.3842 20.7608 37.0328 20.4093L36.6792 20.7629ZM36.1135 20.7629C36.2697 20.6067 36.523 20.6067 36.6792 20.7629L37.0328 20.4093C36.6813 20.0578 36.1115 20.0578 35.76 20.4093L36.1135 20.7629ZM32.4265 24.4499L36.1135 20.7629L35.76 20.4093L32.0729 24.0964L32.4265 24.4499ZM28.3859 20.7629L32.0729 24.4499L32.4265 24.0964L28.7394 20.4093L28.3859 20.7629Z" fill="#FF9800"/>
<path fill-rule="evenodd" clip-rule="evenodd" d="M110.026 21.0535C109.782 21.0104 109.55 21.1734 109.507 21.4175C109.463 21.6615 109.626 21.8943 109.871 21.9373L113.416 22.5624L112.791 26.1075C112.748 26.3516 112.91 26.5843 113.155 26.6274C113.399 26.6704 113.631 26.5074 113.674 26.2634L114.3 22.7183L117.845 23.3434C118.089 23.3864 118.321 23.2234 118.364 22.9794C118.408 22.7353 118.245 22.5025 118 22.4595L114.455 21.8344L115.08 18.2893C115.123 18.0452 114.961 17.8125 114.716 17.7694C114.472 17.7264 114.24 17.8894 114.197 18.1334L113.572 21.6786L110.026 21.0535Z" fill="#FF9800"/>
<path d="M109.871 21.9373L109.827 22.1835L109.871 21.9373ZM113.416 22.5624L113.662 22.6058L113.705 22.3596L113.459 22.3162L113.416 22.5624ZM112.791 26.1075L112.544 26.0641L112.791 26.1075ZM114.3 22.7183L114.343 22.4721L114.097 22.4286L114.053 22.6748L114.3 22.7183ZM114.455 21.8344L114.209 21.791L114.166 22.0372L114.412 22.0806L114.455 21.8344ZM114.197 18.1334L114.443 18.1768L114.197 18.1334ZM113.572 21.6786L113.528 21.9248L113.774 21.9682L113.818 21.722L113.572 21.6786ZM109.753 21.4609C109.772 21.3528 109.875 21.2806 109.983 21.2997L110.07 20.8073C109.69 20.7402 109.327 20.994 109.26 21.374L109.753 21.4609ZM109.914 21.6911C109.806 21.672 109.734 21.569 109.753 21.4609L109.26 21.374C109.193 21.7541 109.447 22.1165 109.827 22.1835L109.914 21.6911ZM113.459 22.3162L109.914 21.6911L109.827 22.1835L113.372 22.8086L113.459 22.3162ZM113.037 26.1509L113.662 22.6058L113.169 22.519L112.544 26.0641L113.037 26.1509ZM113.198 26.3812C113.09 26.3621 113.018 26.259 113.037 26.1509L112.544 26.0641C112.477 26.4442 112.731 26.8066 113.111 26.8736L113.198 26.3812ZM113.428 26.22C113.409 26.3281 113.306 26.4002 113.198 26.3812L113.111 26.8736C113.491 26.9406 113.854 26.6868 113.921 26.3068L113.428 26.22ZM114.053 22.6748L113.428 26.22L113.921 26.3068L114.546 22.7617L114.053 22.6748ZM117.888 23.0972L114.343 22.4721L114.256 22.9645L117.801 23.5896L117.888 23.0972ZM118.118 22.9359C118.099 23.044 117.996 23.1162 117.888 23.0972L117.801 23.5896C118.181 23.6566 118.544 23.4028 118.611 23.0228L118.118 22.9359ZM117.957 22.7057C118.065 22.7248 118.137 22.8278 118.118 22.9359L118.611 23.0228C118.678 22.6427 118.424 22.2803 118.044 22.2133L117.957 22.7057ZM114.412 22.0806L117.957 22.7057L118.044 22.2133L114.499 21.5882L114.412 22.0806ZM114.834 18.2459L114.209 21.791L114.702 21.8778L115.327 18.3327L114.834 18.2459ZM114.673 18.0156C114.781 18.0347 114.853 18.1378 114.834 18.2459L115.327 18.3327C115.394 17.9527 115.14 17.5902 114.76 17.5232L114.673 18.0156ZM114.443 18.1768C114.462 18.0688 114.565 17.9966 114.673 18.0156L114.76 17.5232C114.38 17.4562 114.017 17.71 113.95 18.09L114.443 18.1768ZM113.818 21.722L114.443 18.1768L113.95 18.09L113.325 21.6351L113.818 21.722ZM109.983 21.2997L113.528 21.9248L113.615 21.4324L110.07 20.8073L109.983 21.2997Z" fill="#FF9800"/>
<path fill-rule="evenodd" clip-rule="evenodd" d="M166.257 168.19C166.129 167.855 165.753 167.687 165.418 167.816C165.082 167.945 164.915 168.321 165.044 168.656L166.912 173.524L162.044 175.392C161.709 175.521 161.542 175.897 161.67 176.232C161.799 176.567 162.175 176.735 162.51 176.606L167.378 174.737L169.247 179.605C169.375 179.94 169.751 180.108 170.087 179.979C170.422 179.85 170.589 179.474 170.46 179.139L168.592 174.271L173.46 172.403C173.795 172.274 173.962 171.898 173.834 171.563C173.705 171.228 173.329 171.06 172.994 171.189L168.126 173.058L166.257 168.19Z" fill="#FF9800"/>
<path d="M166.257 168.19L166.491 168.1L166.257 168.19ZM165.044 168.656L165.277 168.566L165.044 168.656ZM166.912 173.524L167.002 173.757L167.235 173.667L167.146 173.434L166.912 173.524ZM167.378 174.737L167.612 174.648L167.522 174.414L167.289 174.504L167.378 174.737ZM168.592 174.271L168.502 174.038L168.269 174.128L168.358 174.361L168.592 174.271ZM172.994 171.189L173.083 171.422L172.994 171.189ZM168.126 173.058L167.893 173.147L167.982 173.381L168.216 173.291L168.126 173.058ZM165.507 168.049C165.713 167.97 165.945 168.073 166.024 168.279L166.491 168.1C166.313 167.636 165.792 167.404 165.328 167.582L165.507 168.049ZM165.277 168.566C165.198 168.36 165.301 168.128 165.507 168.049L165.328 167.582C164.864 167.761 164.632 168.281 164.81 168.745L165.277 168.566ZM167.146 173.434L165.277 168.566L164.81 168.745L166.679 173.613L167.146 173.434ZM162.134 175.626L167.002 173.757L166.823 173.29L161.955 175.159L162.134 175.626ZM161.904 176.142C161.825 175.936 161.928 175.705 162.134 175.626L161.955 175.159C161.491 175.337 161.259 175.858 161.437 176.322L161.904 176.142ZM162.421 176.372C162.214 176.452 161.983 176.349 161.904 176.142L161.437 176.322C161.615 176.786 162.136 177.017 162.6 176.839L162.421 176.372ZM167.289 174.504L162.421 176.372L162.6 176.839L167.468 174.971L167.289 174.504ZM169.48 179.516L167.612 174.648L167.145 174.827L169.013 179.695L169.48 179.516ZM169.997 179.746C169.791 179.825 169.559 179.722 169.48 179.516L169.013 179.695C169.192 180.159 169.712 180.391 170.176 180.212L169.997 179.746ZM170.227 179.229C170.306 179.435 170.203 179.667 169.997 179.746L170.176 180.212C170.64 180.034 170.872 179.514 170.694 179.05L170.227 179.229ZM168.358 174.361L170.227 179.229L170.694 179.05L168.825 174.182L168.358 174.361ZM173.37 172.169L168.502 174.038L168.681 174.505L173.549 172.636L173.37 172.169ZM173.6 171.653C173.679 171.859 173.576 172.09 173.37 172.169L173.549 172.636C174.013 172.458 174.245 171.937 174.067 171.473L173.6 171.653ZM173.083 171.422C173.29 171.343 173.521 171.446 173.6 171.653L174.067 171.473C173.889 171.009 173.368 170.778 172.904 170.956L173.083 171.422ZM168.216 173.291L173.083 171.422L172.904 170.956L168.036 172.824L168.216 173.291ZM166.024 168.279L167.893 173.147L168.359 172.968L166.491 168.1L166.024 168.279Z" fill="#FF9800"/>
<path d="M186.414 18.8117C186.662 18.7212 186.791 18.4469 186.7 18.1988C186.61 17.9508 186.335 17.8231 186.087 17.9136C185.838 18.0041 185.71 18.2784 185.8 18.5265C185.89 18.7745 186.165 18.9022 186.414 18.8117Z" fill="#FF9800" stroke="#FF9800" stroke-width="0.5"/>
<path d="M184.05 18.0178C184.204 18.0892 184.373 18.0917 184.521 18.0379C184.669 17.984 184.796 17.8737 184.868 17.7197C185.012 17.4121 184.879 17.0464 184.571 16.9031L179.933 14.747C179.625 14.6039 179.259 14.7372 179.115 15.0448C178.971 15.3525 179.104 15.7182 179.412 15.8615L184.05 18.0178Z" fill="#FF9800" stroke="#FF9800" stroke-width="0.5"/>
<path d="M187.366 17.0023C187.515 16.9484 187.642 16.8381 187.714 16.6844L189.881 12.0513C190.025 11.7434 189.892 11.3779 189.583 11.2346C189.275 11.0913 188.909 11.2247 188.765 11.5324L186.598 16.1653C186.454 16.4731 186.588 16.8387 186.896 16.982C187.05 17.0536 187.218 17.0562 187.366 17.0023Z" fill="#FF9800" stroke="#FF9800" stroke-width="0.5"/>
<path d="M192.567 21.9782C192.721 22.0497 192.89 22.0522 193.038 21.9983C193.186 21.9445 193.314 21.8342 193.386 21.6802C193.53 21.3725 193.397 21.0068 193.088 20.8635L188.451 18.7074C188.143 18.5643 187.776 18.6976 187.632 19.0053C187.488 19.3129 187.622 19.6787 187.93 19.822L192.567 21.9782Z" fill="#FF9800" stroke="#FF9800" stroke-width="0.5"/>
<path d="M183.388 25.5111C183.536 25.4572 183.663 25.3469 183.736 25.1932L185.902 20.5603C186.046 20.2524 185.913 19.8869 185.605 19.7436C185.297 19.6003 184.931 19.7338 184.787 20.0414L182.62 24.6741C182.476 24.982 182.609 25.3475 182.917 25.4908C183.071 25.5625 183.24 25.565 183.388 25.5111Z" fill="#FF9800" stroke="#FF9800" stroke-width="0.5"/>
<path d="M29.0422 100.735C29.2475 100.66 29.3535 100.434 29.279 100.229C29.2044 100.024 28.9775 99.9184 28.7722 99.9931C28.5668 100.068 28.4608 100.295 28.5354 100.499C28.61 100.704 28.8369 100.81 29.0422 100.735Z" fill="#FF9800"/>
<path d="M27.0899 100.079C27.2172 100.138 27.3565 100.14 27.4787 100.096C27.601 100.051 27.7064 99.96 27.7658 99.8328C27.8848 99.5786 27.7749 99.2765 27.5203 99.1581L23.6891 97.3771C23.4346 97.2588 23.1322 97.3689 23.0132 97.6231C22.8942 97.8772 23.0041 98.1794 23.2587 98.2977L27.0899 100.079Z" fill="#FF9800"/>
<path d="M29.8303 99.2401C29.9527 99.1956 30.058 99.1045 30.1175 98.9775L31.9074 95.1501C32.0263 94.8958 31.9164 94.5939 31.6618 94.4755C31.4072 94.3571 31.1048 94.4674 30.9858 94.7215L29.1959 98.5487C29.077 98.803 29.1869 99.105 29.4415 99.2233C29.5688 99.2825 29.708 99.2846 29.8303 99.2401Z" fill="#FF9800"/>
<path d="M34.126 103.351C34.2533 103.41 34.3926 103.412 34.5148 103.367C34.6371 103.323 34.7425 103.232 34.802 103.105C34.9209 102.85 34.811 102.548 34.5564 102.43L30.7253 100.649C30.4707 100.531 30.1683 100.641 30.0493 100.895C29.9303 101.149 30.0403 101.451 30.2948 101.569L34.126 103.351Z" fill="#FF9800"/>
<path d="M26.5432 106.269C26.6656 106.225 26.7709 106.134 26.8304 106.007L28.6202 102.179C28.7392 101.925 28.6293 101.623 28.3747 101.505C28.1201 101.386 27.8177 101.497 27.6987 101.751L25.9088 105.578C25.7898 105.832 25.8997 106.134 26.1543 106.252C26.2816 106.312 26.421 106.314 26.5432 106.269Z" fill="#FF9800"/>
<path d="M217.466 120C217.466 122.207 215.673 124 213.455 124C211.238 124 209.444 122.207 209.444 120C209.444 117.793 211.238 116 213.455 116C215.673 116 217.466 117.793 217.466 120Z" stroke="#FF9800" stroke-width="2"/>
</svg>
